<mxfile host="app.diagrams.net" agent="Mozilla/5.0 (X11; Ubuntu; Linux x86_64; rv:136.0) Gecko/20100101 Firefox/136.0" version="26.1.1">
  <diagram name="Page-1" id="IeUihQvaDWSmCFk_tiSB">
    <mxGraphModel dx="941" dy="528" grid="1" gridSize="5" guides="1" tooltips="1" connect="1" arrows="1" fold="1" page="1" pageScale="1" pageWidth="850" pageHeight="1100" math="0" shadow="0">
      <root>
        <mxCell id="0" />
        <mxCell id="1" parent="0" />
        <mxCell id="bwbzSmdIYrnLR9u59vHY-1" value="LIF&lt;sub&gt;0&lt;/sub&gt;" style="ellipse;whiteSpace=wrap;html=1;aspect=fixed;" vertex="1" parent="1">
          <mxGeometry x="180" y="390" width="40" height="40" as="geometry" />
        </mxCell>
        <mxCell id="bwbzSmdIYrnLR9u59vHY-2" value="LIF&lt;sub&gt;1&lt;/sub&gt;" style="ellipse;whiteSpace=wrap;html=1;aspect=fixed;" vertex="1" parent="1">
          <mxGeometry x="240" y="390" width="40" height="40" as="geometry" />
        </mxCell>
        <mxCell id="bwbzSmdIYrnLR9u59vHY-3" value="LIF&lt;sub&gt;n-1&lt;/sub&gt;" style="ellipse;whiteSpace=wrap;html=1;aspect=fixed;" vertex="1" parent="1">
          <mxGeometry x="340" y="390" width="40" height="40" as="geometry" />
        </mxCell>
        <mxCell id="bwbzSmdIYrnLR9u59vHY-19" style="edgeStyle=orthogonalEdgeStyle;rounded=1;orthogonalLoop=1;jettySize=auto;html=1;exitX=1;exitY=0.5;exitDx=0;exitDy=0;entryX=0.5;entryY=0;entryDx=0;entryDy=0;curved=0;" edge="1" parent="1" source="bwbzSmdIYrnLR9u59vHY-6" target="bwbzSmdIYrnLR9u59vHY-18">
          <mxGeometry relative="1" as="geometry" />
        </mxCell>
        <mxCell id="bwbzSmdIYrnLR9u59vHY-6" value="" style="rounded=1;whiteSpace=wrap;html=1;fillColor=none;" vertex="1" parent="1">
          <mxGeometry x="160" y="300" width="240" height="40" as="geometry" />
        </mxCell>
        <mxCell id="bwbzSmdIYrnLR9u59vHY-5" value="" style="rounded=1;whiteSpace=wrap;html=1;fillColor=none;movable=1;resizable=1;rotatable=1;deletable=1;editable=1;locked=0;connectable=1;" vertex="1" parent="1">
          <mxGeometry x="160" y="380" width="240" height="60" as="geometry" />
        </mxCell>
        <mxCell id="bwbzSmdIYrnLR9u59vHY-9" value="" style="endArrow=classic;html=1;rounded=0;" edge="1" parent="1">
          <mxGeometry width="50" height="50" relative="1" as="geometry">
            <mxPoint x="279.66" y="380" as="sourcePoint" />
            <mxPoint x="280" y="340" as="targetPoint" />
          </mxGeometry>
        </mxCell>
        <mxCell id="bwbzSmdIYrnLR9u59vHY-11" value="" style="endArrow=none;dashed=1;html=1;dashPattern=1 3;strokeWidth=2;rounded=0;" edge="1" parent="1">
          <mxGeometry width="50" height="50" relative="1" as="geometry">
            <mxPoint x="285" y="410" as="sourcePoint" />
            <mxPoint x="330" y="410" as="targetPoint" />
          </mxGeometry>
        </mxCell>
        <mxCell id="bwbzSmdIYrnLR9u59vHY-14" value="spk&lt;sub&gt;0&lt;/sub&gt;" style="text;html=1;align=center;verticalAlign=middle;whiteSpace=wrap;rounded=0;" vertex="1" parent="1">
          <mxGeometry x="182.5" y="305" width="35" height="30" as="geometry" />
        </mxCell>
        <mxCell id="bwbzSmdIYrnLR9u59vHY-15" value="spk&lt;sub&gt;1&lt;/sub&gt;" style="text;html=1;align=center;verticalAlign=middle;whiteSpace=wrap;rounded=0;" vertex="1" parent="1">
          <mxGeometry x="242.5" y="305" width="35" height="30" as="geometry" />
        </mxCell>
        <mxCell id="bwbzSmdIYrnLR9u59vHY-16" value="spk&lt;sub&gt;n-1&lt;/sub&gt;" style="text;html=1;align=center;verticalAlign=middle;whiteSpace=wrap;rounded=0;" vertex="1" parent="1">
          <mxGeometry x="340" y="305" width="40" height="30" as="geometry" />
        </mxCell>
        <mxCell id="bwbzSmdIYrnLR9u59vHY-23" style="edgeStyle=orthogonalEdgeStyle;rounded=1;orthogonalLoop=1;jettySize=auto;html=1;exitX=0.5;exitY=1;exitDx=0;exitDy=0;entryX=1;entryY=0.5;entryDx=0;entryDy=0;curved=0;" edge="1" parent="1" source="bwbzSmdIYrnLR9u59vHY-18" target="bwbzSmdIYrnLR9u59vHY-20">
          <mxGeometry relative="1" as="geometry" />
        </mxCell>
        <mxCell id="bwbzSmdIYrnLR9u59vHY-24" value="&lt;font style=&quot;font-size: 15px;&quot;&gt;I&lt;sub&gt;r&lt;/sub&gt;(t)&lt;/font&gt;" style="edgeLabel;html=1;align=center;verticalAlign=middle;resizable=0;points=[];" vertex="1" connectable="0" parent="bwbzSmdIYrnLR9u59vHY-23">
          <mxGeometry x="-0.4373" y="-2" relative="1" as="geometry">
            <mxPoint x="20" y="-10" as="offset" />
          </mxGeometry>
        </mxCell>
        <mxCell id="bwbzSmdIYrnLR9u59vHY-18" value="Recurrent dense layer" style="rounded=1;whiteSpace=wrap;html=1;fillColor=none;" vertex="1" parent="1">
          <mxGeometry x="420" y="390" width="180" height="40" as="geometry" />
        </mxCell>
        <mxCell id="bwbzSmdIYrnLR9u59vHY-20" value="&lt;font style=&quot;font-size: 24px;&quot;&gt;+&lt;/font&gt;" style="rounded=1;whiteSpace=wrap;html=1;fillColor=none;" vertex="1" parent="1">
          <mxGeometry x="160" y="480" width="240" height="40" as="geometry" />
        </mxCell>
        <mxCell id="bwbzSmdIYrnLR9u59vHY-25" value="" style="endArrow=classic;html=1;rounded=0;" edge="1" parent="1">
          <mxGeometry width="50" height="50" relative="1" as="geometry">
            <mxPoint x="280" y="480" as="sourcePoint" />
            <mxPoint x="280.34000000000003" y="440" as="targetPoint" />
          </mxGeometry>
        </mxCell>
        <mxCell id="bwbzSmdIYrnLR9u59vHY-27" value="&lt;font style=&quot;font-size: 14px;&quot;&gt;I(t)&lt;/font&gt;" style="edgeLabel;html=1;align=center;verticalAlign=middle;resizable=0;points=[];" vertex="1" connectable="0" parent="bwbzSmdIYrnLR9u59vHY-25">
          <mxGeometry x="0.0218" y="-3" relative="1" as="geometry">
            <mxPoint x="12" as="offset" />
          </mxGeometry>
        </mxCell>
        <mxCell id="bwbzSmdIYrnLR9u59vHY-32" value="Forward dense layer" style="rounded=1;whiteSpace=wrap;html=1;fillColor=none;" vertex="1" parent="1">
          <mxGeometry x="160" y="560" width="240" height="40" as="geometry" />
        </mxCell>
        <mxCell id="bwbzSmdIYrnLR9u59vHY-33" value="" style="endArrow=classic;html=1;rounded=0;" edge="1" parent="1">
          <mxGeometry width="50" height="50" relative="1" as="geometry">
            <mxPoint x="277.5" y="560" as="sourcePoint" />
            <mxPoint x="277.84000000000003" y="520" as="targetPoint" />
          </mxGeometry>
        </mxCell>
        <mxCell id="bwbzSmdIYrnLR9u59vHY-34" value="&lt;font style=&quot;font-size: 14px;&quot;&gt;I&lt;sub&gt;f&lt;/sub&gt;(t)&lt;/font&gt;" style="edgeLabel;html=1;align=center;verticalAlign=middle;resizable=0;points=[];" vertex="1" connectable="0" parent="bwbzSmdIYrnLR9u59vHY-33">
          <mxGeometry x="0.0218" y="-3" relative="1" as="geometry">
            <mxPoint x="12" as="offset" />
          </mxGeometry>
        </mxCell>
      </root>
    </mxGraphModel>
  </diagram>
</mxfile>
